HIERARCHY
ROOT RootJoint
{
    OFFSET   0.000000   0.000000   0.000000
    CHANNELS 6 Xposition Yposition Zposition Xrotation Yrotation Zrotation
    JOINT pelvis_lowerback
    {
        OFFSET   0.000000   0.093605   0.000000
        CHANNELS 3 Xrotation Yrotation Zrotation
        JOINT lowerback_torso
        {
            OFFSET   0.000000   0.100000   0.000000
            CHANNELS 3 Xrotation Yrotation Zrotation
            JOINT torso_head
            {
                OFFSET   0.000000   0.282350   0.000000
                CHANNELS 3 Xrotation Yrotation Zrotation
                End Site
                {
                    OFFSET   0.000000   0.192650   0.000000
                }
            }
            JOINT rTorso_Clavicle
            {
                OFFSET  -0.001000   0.157500   0.000000
                CHANNELS 3 Xrotation Yrotation Zrotation
                JOINT rShoulder
                {
                    OFFSET  -0.117647   0.000000   0.000000
                    CHANNELS 3 Xrotation Yrotation Zrotation
                    JOINT rElbow
                    {
                        OFFSET  -0.245000   0.000000   0.000000
                        CHANNELS 3 Xrotation Yrotation Zrotation
                        JOINT rWrist
                        {
                            OFFSET  -0.240000   0.000000   0.000000
                            CHANNELS 3 Xrotation Yrotation Zrotation
                            End Site
                            {
                                OFFSET  -0.116353  -0.002500   0.000000
                            }
                        }
                    }
                }
            }
            JOINT lTorso_Clavicle
            {
                OFFSET   0.001000   0.157500   0.000000
                CHANNELS 3 Xrotation Yrotation Zrotation
                JOINT lShoulder
                {
                    OFFSET   0.117647   0.000000   0.000000
                    CHANNELS 3 Xrotation Yrotation Zrotation
                    JOINT lElbow
                    {
                        OFFSET   0.245000   0.000000   0.000000
                        CHANNELS 3 Xrotation Yrotation Zrotation
                        JOINT lWrist
                        {
                            OFFSET   0.240000   0.000000   0.000000
                            CHANNELS 3 Xrotation Yrotation Zrotation
                            End Site
                            {
                                OFFSET   0.116353  -0.002500   0.000000
                            }
                        }
                    }
                }
            }
        }
    }
    JOINT rHip
    {
        OFFSET  -0.100000  -0.051395   0.000000
        CHANNELS 3 Xrotation Yrotation Zrotation
        JOINT rKnee
        {
            OFFSET   0.000000  -0.410000   0.000000
            CHANNELS 3 Xrotation Yrotation Zrotation
            JOINT rAnkle
            {
                OFFSET   0.000000  -0.390000   0.000000
                CHANNELS 3 Xrotation Yrotation Zrotation
                JOINT rToeJoint
                {
                    OFFSET   0.000000  -0.050000   0.130000
                    CHANNELS 3 Xrotation Yrotation Zrotation
                    End Site
                    {
                        OFFSET  -0.010000   0.002000   0.060000
                    }
                }
            }
        }
    }
    JOINT lHip
    {
        OFFSET   0.100000  -0.051395   0.000000
        CHANNELS 3 Xrotation Yrotation Zrotation
        JOINT lKnee
        {
            OFFSET   0.000000  -0.410000   0.000000
            CHANNELS 3 Xrotation Yrotation Zrotation
            JOINT lAnkle
            {
                OFFSET   0.000000  -0.390000   0.000000
                CHANNELS 3 Xrotation Yrotation Zrotation
                JOINT lToeJoint
                {
                    OFFSET   0.000000  -0.050000   0.130000
                    CHANNELS 3 Xrotation Yrotation Zrotation
                    End Site
                    {
                        OFFSET   0.010000   0.002000   0.060000
                    }
                }
            }
        }
    }
}
MOTION
Frames: 8
Frame Time:   0.008333
 -2.466985   0.958357   5.131972  -1.755668  -3.717888  -1.993892   6.640892   2.477525   0.486930   7.764792   0.194345   2.818626   0.489314  -4.851495   4.417712   2.156607   6.888243  13.835652 -10.704342  -0.757555   5.447009  -0.004314  56.841197   0.003476  14.691765   2.594539 -22.956573   8.006794  -6.539895 -18.910103  22.030953  -1.964358 -25.637557   0.000004 -29.693822   0.000180  10.745787  -3.897990   9.513605  -1.338158   2.655064  10.360940   5.060934   0.000151   0.001268  27.772918  -3.713227  -6.809647 -45.077026   0.000586   0.000344 -19.491766  -4.632919   7.775287  72.262598  -0.002922  -0.001177 -12.923867  -0.208184  -2.603052  -6.994642  -0.002376  -0.001107
 -2.467186   0.959432   5.134883  -1.800314  -4.340926  -1.843639   6.725429   2.628891   0.495715   7.807301   0.370338   2.708153   0.525857  -4.841860   4.404381   2.100693   7.127959  13.829052 -10.695738  -0.553746   5.363345  -0.004247  56.131024   0.003000  14.721962   2.653265 -22.802405   7.989123  -6.392933 -18.953356  22.151751  -1.875571 -25.755894   0.000032 -29.766417   0.000256  10.734779  -3.892179   9.409094  -1.134066   2.827140  10.181115   5.049398   0.000121   0.001063  28.016883  -3.301123  -6.993845 -45.061621   0.000463   0.000276 -20.078781  -4.895040   7.455398  71.671157   0.001121   0.001981 -13.185158  -0.144009  -2.505303  -6.883418  -0.002428  -0.001633
 -2.467352   0.960564   5.137706  -1.838830  -4.960998  -1.705652   6.814992   2.774050   0.515372   7.854730   0.544429   2.603622   0.561282  -4.833111   4.391267   2.044624   7.357805  13.808721 -10.690190  -0.362041   5.278234  -0.004105  55.456966   0.002620  14.722668   2.640874 -22.629745   7.980299  -6.247053 -18.994541  22.268883  -1.790914 -25.877956   0.000059 -29.837097   0.000327  10.726151  -3.912368   9.288358  -0.957769   2.992308  10.007741   5.057480   0.000097   0.000817  28.298352  -2.895236  -7.147159 -45.049297   0.000363   0.000219 -20.644130  -5.170113   7.142065  70.957623   0.005049   0.005278 -13.433740  -0.084459  -2.412674  -6.769461  -0.002471  -0.002096
 -2.467504   0.961689   5.140481  -1.883293  -5.573467  -1.577917   6.910864   2.914850   0.537761   7.909107   0.713089   2.506648   0.596508  -4.824923   4.379891   1.991267   7.571959  13.780892 -10.686346  -0.182690   5.193572  -0.003874  54.827178   0.002268  14.716633   2.612664 -22.463305   7.977816  -6.104339 -19.031245  22.381598  -1.707573 -25.995278   0.000075 -29.902097   0.000378  10.717086  -3.934394   9.160436  -0.785971   3.146701   9.842787   5.078250   0.000076   0.000566  28.585374  -2.511800  -7.283052 -45.039438   0.000285   0.000171 -21.197460  -5.433502   6.843325  70.240909   0.008030   0.007956 -13.667638  -0.029129  -2.325881  -6.663351  -0.002442  -0.002404
 -2.467646   0.962786   5.143236  -1.935995  -6.178648  -1.458953   7.008922   3.051357   0.559952   7.968902   0.875596   2.416533   0.631384  -4.817141   4.369777   1.941331   7.770662  13.750464 -10.683394  -0.015530   5.111639  -0.003568  54.239469   0.001898  14.709909   2.582956 -22.306766   7.980477  -5.965172 -19.063496  22.489720  -1.625097 -26.106366   0.000078 -29.960967   0.000409  10.706775  -3.948982   9.030997  -0.611649   3.290991   9.685435   5.109097   0.000059   0.000324  28.865929  -2.152995  -7.406605 -45.031550   0.000223   0.000132 -21.736198  -5.679531   6.559298  69.554385   0.010058   0.009930 -13.886836   0.022166  -2.244837  -6.566583  -0.002352  -0.002572
 -2.467784   0.963850   5.145988  -1.995948  -6.777243  -1.348377   7.105360   3.183203   0.581337   8.031264   1.031625   2.332888   0.665320  -4.809753   4.360535   1.895044   7.954943  13.720250 -10.680808   0.139959   5.033883  -0.003206  53.691060   0.001492  14.703667   2.554646 -22.158979   7.987256  -5.829974 -19.092053  22.593142  -1.543870 -26.211248   0.000072 -30.014103   0.000423  10.695241  -3.954387   8.902344  -0.433618   3.425856   9.535407   5.148542   0.000043   0.000093  29.136074  -1.818146  -7.519971 -45.025240   0.000175   0.000100 -22.256980  -5.907610   6.289503  68.906829   0.011308   0.011287 -14.091948   0.069704  -2.169232  -6.478839  -0.002220  -0.002634
 -2.467918   0.964879   5.148745  -2.061379  -7.369767  -1.246064   7.197436   3.309899   0.601985   8.093614   1.180865   2.255504   0.697800  -4.802765   4.351981   1.852365   8.125926  13.691692 -10.678309   0.284480   4.960990  -0.002808  53.179307   0.001055  14.698066   2.528245 -22.018509   7.997136  -5.699282 -19.117623  22.691746  -1.464510 -26.310188   0.000059 -30.062132   0.000423  10.682774  -3.951527   8.775590  -0.252539   3.551803   9.392576   5.195490   0.000028  -0.000123  29.394742  -1.505902  -7.624303 -45.020192   0.000138   0.000074 -22.757189  -6.118407   6.033388  68.299603   0.011961   0.012142 -14.283747   0.113768  -2.098725  -6.399379  -0.002062  -0.002619
 -2.467928   0.965795   5.151576  -2.092265  -7.938835  -1.090207   7.240959   3.442829   0.604814   8.138443   1.309927   2.184115   0.716379  -4.745151   4.272618   1.812998   8.291413  13.689102 -10.682586   0.439741   4.851639  -0.002366  52.575319   0.000364  14.713577   2.541197 -21.915728   7.981696  -5.575660 -19.167272  22.803528  -1.425241 -26.431997   0.000047 -30.030746   0.000292  10.675752  -3.955054   8.696640  -0.080367   3.683070   9.181671   5.236590   0.000023  -0.000263  29.524215  -1.188519  -7.699135 -45.016154   0.000108   0.000054 -23.163027  -6.312106   5.718651  67.134090   0.014924   0.015973 -14.370927   0.146990  -2.050161  -6.304042  -0.001951  -0.002738
